<svg width="32" height="32" viewBox="0 0 32 32" fill="none" xmlns="http://www.w3.org/2000/svg">
  <!-- 猫咪身体 -->
  <ellipse cx="16" cy="20" rx="8" ry="6" fill="#FFA366" stroke="#000" stroke-width="2"/>
  
  <!-- 猫咪头部 -->
  <circle cx="16" cy="12" r="7" fill="#FFA366" stroke="#000" stroke-width="2"/>
  
  <!-- 猫咪耳朵 -->
  <path d="M10 8 L8 4 L12 6 Z" fill="#FFA366" stroke="#000" stroke-width="2"/>
  <path d="M22 8 L24 4 L20 6 Z" fill="#FFA366" stroke="#000" stroke-width="2"/>
  
  <!-- 耳朵内部 -->
  <path d="M10 7 L9 5 L11 6 Z" fill="#FFB399"/>
  <path d="M22 7 L23 5 L21 6 Z" fill="#FFB399"/>
  
  <!-- 猫咪眼睛 -->
  <circle cx="13" cy="11" r="1.5" fill="#000"/>
  <circle cx="19" cy="11" r="1.5" fill="#000"/>
  
  <!-- 眼睛高光 -->
  <circle cx="13.5" cy="10.5" r="0.5" fill="#FFF"/>
  <circle cx="19.5" cy="10.5" r="0.5" fill="#FFF"/>
  
  <!-- 猫咪鼻子 -->
  <path d="M16 13 L15 14 L17 14 Z" fill="#FF69B4"/>
  
  <!-- 猫咪嘴巴 -->
  <path d="M16 14 Q14 16 12 15" stroke="#000" stroke-width="1.5" fill="none"/>
  <path d="M16 14 Q18 16 20 15" stroke="#000" stroke-width="1.5" fill="none"/>
  
  <!-- 脸颊腮红 -->
  <circle cx="10" cy="13" r="1.5" fill="#FFB399" opacity="0.7"/>
  <circle cx="22" cy="13" r="1.5" fill="#FFB399" opacity="0.7"/>
  
  <!-- 猫咪胡须 -->
  <line x1="6" y1="12" x2="9" y2="12" stroke="#000" stroke-width="1"/>
  <line x1="6" y1="14" x2="9" y2="13" stroke="#000" stroke-width="1"/>
  <line x1="23" y1="12" x2="26" y2="12" stroke="#000" stroke-width="1"/>
  <line x1="23" y1="13" x2="26" y2="14" stroke="#000" stroke-width="1"/>
  
  <!-- 猫咪尾巴 -->
  <path d="M24 20 Q28 18 26 24 Q24 26 22 22" fill="#FFA366" stroke="#000" stroke-width="2"/>
  
  <!-- 尾巴条纹 -->
  <path d="M24 20 Q26 19 25 22" stroke="#FF8C42" stroke-width="1.5" fill="none"/>
  
  <!-- 猫咪爪子 -->
  <ellipse cx="12" cy="25" rx="2" ry="1" fill="#FFA366" stroke="#000" stroke-width="1"/>
  <ellipse cx="20" cy="25" rx="2" ry="1" fill="#FFA366" stroke="#000" stroke-width="1"/>
</svg>